<svg xmlns="http://www.w3.org/2000/svg" viewBox="0 0 100 100" width="100" height="100"><path fill="#444445" d="M78.953 42.736c-.299-6.932-1.183-13.269-2.69-18.098L78 9l-10.584 4.885C62.759 11.402 56.847 11 50 11s-12.759.402-17.416 2.885L22 9l1.737 15.638c-1.507 4.829-2.392 11.166-2.69 18.098a51.086 51.086 0 0 0 .299 8.137l1.531 13.057a29.908 29.908 0 0 0 7.019 16.005L35.966 87c4.464 4.455 8.717 4.118 14.034 4.018 5.317.1 9.57.437 14.034-4.018l6.069-7.066a29.908 29.908 0 0 0 7.019-16.005l1.531-13.057c.317-2.698.417-5.422.3-8.136z"/><path fill="#1f212b" d="M46.984 92.067c-4.137 0-7.867-.509-11.726-4.358l-6.122-7.122a30.806 30.806 0 0 1-7.253-16.541l-1.531-13.057a52.337 52.337 0 0 1-.306-8.296c.31-7.176 1.232-13.445 2.673-18.152L21.005 9.11a1 1 0 0 1 1.415-1.019l10.14 4.68c4.6-2.293 10.317-2.772 17.44-2.772s12.841.479 17.44 2.772l10.14-4.68a1.002 1.002 0 0 1 1.415 1.019L77.28 24.54c1.44 4.707 2.363 10.977 2.673 18.152a52.219 52.219 0 0 1-.306 8.296l-1.531 13.057a30.812 30.812 0 0 1-7.253 16.541l-6.069 7.066c-4.591 4.583-8.952 4.492-14.005 4.383l-.808-.017-.771.017c-.756.016-1.497.032-2.226.032zM23.19 10.652l1.542 13.875c.015.137.002.276-.039.409-1.425 4.565-2.34 10.735-2.646 17.843a50.339 50.339 0 0 0 .294 7.977l1.531 13.057a28.813 28.813 0 0 0 6.784 15.469l6.069 7.066c3.882 3.869 7.664 3.789 12.442 3.686l.813-.017.851.017c4.783.105 8.562.183 12.495-3.742l6.017-7.01a28.805 28.805 0 0 0 6.784-15.469l1.531-13.058c.309-2.634.407-5.318.294-7.977-.307-7.108-1.222-13.278-2.646-17.843a1.01 1.01 0 0 1-.039-.409l1.542-13.875-8.974 4.142a1.001 1.001 0 0 1-.891-.025c-4.309-2.296-9.891-2.767-16.945-2.767s-12.637.471-16.945 2.767a1.004 1.004 0 0 1-.891.025l-8.973-4.141z"/><path fill="#c12cff" d="M56.5 51.5l-6-5-6 5 6-1z"/><path fill="#1f212b" d="M56.5 52a.454.454 0 0 1-.082-.007l-5.918-.986-5.918.986a.5.5 0 1 1-.402-.878l6-5a.502.502 0 0 1 .641 0l6 5A.5.5 0 0 1 56.5 52zm-6-2c.027 0 .055.002.082.007l4.182.697-4.264-3.553-4.264 3.553 4.182-.697A.567.567 0 0 1 50.5 50z"/><path fill="#fff" d="M31.83 46.432l6.606 1.341 3.16-2.107-10.724-4.883z"/><path fill="#1f212b" d="M38.437 48.273a.492.492 0 0 1-.1-.01l-6.606-1.34a.505.505 0 0 1-.394-.407l-.958-5.649a.501.501 0 0 1 .7-.539l10.724 4.883a.5.5 0 0 1 .07.871l-3.159 2.106a.496.496 0 0 1-.277.085zm-6.171-2.263l6.066 1.231 2.238-1.493-9.048-4.12.744 4.382zM28.811 68.344a.5.5 0 0 1-.495-.575l.531-3.508a.5.5 0 0 1 .326-.396l4.97-1.769 3.91-7.82a.5.5 0 0 1 .895.447l-4 8a.507.507 0 0 1-.279.248l-4.878 1.736-.486 3.212a.5.5 0 0 1-.494.425zM27.501 77a.5.5 0 0 1-.495-.575l.771-5.095a.5.5 0 1 1 .988.15l-.771 5.095a.5.5 0 0 1-.493.425z"/><path fill="#c12cff" d="M48 11.5V22a2 2 0 1 0 4 0V11.5h-4z"/><path fill="#1f212b" d="M50 24.548A2.55 2.55 0 0 1 47.452 22V11.5c0-.303.245-.548.548-.548h4c.303 0 .548.245.548.548V22A2.55 2.55 0 0 1 50 24.548zm-1.452-12.5V22a1.453 1.453 0 0 0 2.904 0v-9.952h-2.904z"/><path fill="#c12cff" d="M38 88s-.5-14.5-.5-16.5C24.5 62.5 22 51 22 51l-.447-3.132S30.5 61.5 41.5 67.5c-.133 3.078-1 18-1 22L38 88z"/><path fill="#1f212b" d="M40.5 90a.503.503 0 0 1-.257-.071l-2.5-1.5a.5.5 0 0 1-.243-.412c-.02-.571-.466-13.537-.498-16.255-12.827-8.987-15.465-20.54-15.49-20.656l-.454-3.167a.502.502 0 0 1 .913-.346c.089.135 9.008 13.598 19.769 19.467a.5.5 0 0 1 .261.46c-.037.84-.128 2.563-.241 4.704-.303 5.727-.76 14.38-.76 17.276a.5.5 0 0 1-.5.5zm-2.01-2.289l1.52.912c.068-3.516.474-11.208.751-16.45.101-1.901.184-3.471.226-4.385-8.528-4.764-15.85-14.077-18.644-17.922l.152 1.064c.019.078 2.619 11.388 15.289 20.16a.494.494 0 0 1 .216.41c0 1.818.422 14.21.49 16.211z"/><path fill="#fff" d="M68.723 46.432l-6.606 1.341-3.16-2.107 10.724-4.883z"/><path fill="#1f212b" d="M62.117 48.273a.5.5 0 0 1-.277-.084l-3.16-2.106a.501.501 0 0 1 .07-.871l10.724-4.883a.499.499 0 0 1 .7.539l-.957 5.649a.502.502 0 0 1-.394.407l-6.606 1.34a.676.676 0 0 1-.1.009zm-2.135-2.524l2.239 1.493 6.066-1.231.742-4.381-9.047 4.119zm8.742.683h.01-.01z"/><path fill="#c12cff" d="M70.053 37.5l-12 5-2-1v-4s7-4 12-6c5-4 5.457-10.568 5.457-10.568-1.484-1.954-3.742-4.128-6.457-6.432 0 8-4 13-4 13l-10 8v9l4 2 12.548-5.764 4.452 3.764-5 6-9 1-2 4-5-1H47.5l-5 1-2-4-9-1-5-6 4.372-3.764L43.5 46.5l4-2v-9l-10-8s-4.585-5.014-4.585-13.014a28.042 28.042 0 0 0-5.936 6.383s.521 6.632 5.521 10.632c5 2 12 6 12 6v4l-2 1-12-5-6 5v4l6 7 8 1 3 5 7-2h3.553l7.447 2 2.553-5 8-1 6-7v-4l-6-5.001z"/><path fill="#1f212b" d="M59.5 60a.484.484 0 0 1-.13-.017L51.986 58H48.57l-6.933 1.981a.502.502 0 0 1-.566-.224l-2.875-4.792-7.759-.97a.496.496 0 0 1-.317-.171l-6-7A.497.497 0 0 1 24 46.5v-4c0-.148.065-.289.18-.384l6-5a.498.498 0 0 1 .513-.077l11.789 4.912 1.518-.76v-3.399c-1.296-.73-7.306-4.075-11.686-5.827a.503.503 0 0 1-.127-.074c-5.11-4.088-5.686-10.704-5.707-10.983a.495.495 0 0 1 .084-.319 28.746 28.746 0 0 1 6.041-6.496.5.5 0 0 1 .809.393c0 7.698 4.41 12.629 4.454 12.678l9.943 7.946c.12.095.189.238.189.39v9a.5.5 0 0 1-.276.447l-4 2a.506.506 0 0 1-.432.008l-12.336-5.632-3.757 3.235 4.556 5.467 8.801.978a.504.504 0 0 1 .392.273l1.829 3.658 4.626-.925 5.65-.01 4.724.936 1.829-3.659a.5.5 0 0 1 .392-.273l8.801-.978 4.553-5.464-3.83-3.239-12.259 5.632a.502.502 0 0 1-.433-.007l-4-2a.5.5 0 0 1-.276-.447v-9c0-.152.069-.295.188-.391l9.953-7.962c.37-.489 3.859-5.304 3.859-12.647a.5.5 0 0 1 .823-.382c3.005 2.55 5.143 4.68 6.533 6.511a.508.508 0 0 1 .101.337c-.02.277-.532 6.833-5.645 10.924a.535.535 0 0 1-.127.074c-4.38 1.752-10.39 5.097-11.686 5.827v3.399l1.519.76 11.789-4.912a.5.5 0 0 1 .513.077l6 5a.5.5 0 0 1 .18.384v4a.502.502 0 0 1-.12.325l-6 7a.496.496 0 0 1-.317.171l-7.737.967-2.433 4.764A.502.502 0 0 1 59.5 60zm-28.746-6.972l7.809.976a.499.499 0 0 1 .366.239l2.803 4.671 6.631-1.895A.482.482 0 0 1 48.5 57h3.553c.044 0 .087.006.13.017l7.056 1.895 2.369-4.64a.502.502 0 0 1 .383-.269l7.809-.976 5.754-6.713v-3.581l-5.587-4.656-11.721 4.883a.504.504 0 0 1-.416-.014l-2-1a.5.5 0 0 1-.276-.447v-4a.5.5 0 0 1 .252-.434c.07-.04 7.022-4.003 11.992-6.002 4.268-3.456 5.077-8.919 5.197-9.984-1.22-1.573-3.015-3.383-5.465-5.512-.322 7.455-3.926 12.043-4.086 12.244a.523.523 0 0 1-.078.078l-9.813 7.85v8.451l3.509 1.755 12.33-5.665a.505.505 0 0 1 .532.073l4.452 3.765a.502.502 0 0 1 .061.702l-5 6a.497.497 0 0 1-.328.177l-8.73.97-1.879 3.757a.496.496 0 0 1-.545.267l-5-1L47.5 55l-4.902.99a.5.5 0 0 1-.545-.267l-1.878-3.757-8.73-.97a.497.497 0 0 1-.328-.177l-5-6a.5.5 0 0 1 .058-.699l4.372-3.765a.5.5 0 0 1 .534-.076l12.41 5.666L47 44.191V35.74l-9.813-7.85c-.238-.252-4.389-4.877-4.748-12.371a27.685 27.685 0 0 0-4.944 5.478c.125 1.038.979 6.599 5.261 10.066 4.97 1.999 11.922 5.962 11.992 6.002.156.09.252.256.252.435v4a.5.5 0 0 1-.276.447l-2 1a.496.496 0 0 1-.416.014l-11.721-4.883L25 42.734v3.581l5.754 6.713z"/><path fill="#1f212b" d="M73.052 77a.5.5 0 0 1-.493-.425l-1.795-11.868-4.879-1.736a.499.499 0 0 1-.275-.24l-2.436-4.674a.5.5 0 1 1 .887-.462l2.345 4.5 4.976 1.771a.5.5 0 0 1 .326.396l1.84 12.164a.499.499 0 0 1-.496.574z"/><path fill="#c12cff" d="M62.553 88s.947-14.5.947-16.5c13-9 15.053-20.5 15.053-20.5L79 47.868S70.053 61.5 59.053 67.5c.133 3.078 1 18 1 22l2.5-1.5z"/><path fill="#1f212b" d="M60.053 90a.5.5 0 0 1-.5-.5c0-2.909-.459-11.598-.763-17.349-.111-2.107-.201-3.799-.237-4.63a.5.5 0 0 1 .261-.46c10.761-5.869 19.68-19.332 19.769-19.467a.5.5 0 0 1 .913.346l-.447 3.132c-.023.133-2.218 11.699-15.052 20.693-.061 2.725-.907 15.698-.944 16.269a.501.501 0 0 1-.242.396l-2.5 1.5a.521.521 0 0 1-.258.07zm-.487-22.212c.042.902.123 2.443.223 4.311.277 5.267.686 12.994.754 16.524l1.527-.917c.128-1.968.93-14.392.93-16.206 0-.164.08-.318.216-.411 12.66-8.765 14.824-20.064 14.845-20.177l.149-1.047c-2.794 3.845-10.116 13.159-18.644 17.923zM62.553 88h.01-.01zM48.5 32.048a.55.55 0 0 1-.342-.12c-.051-.04-5.059-4.054-8.046-7.041a.546.546 0 0 1-.132-.214c-2.005-6.015-2.028-11.925-2.028-12.173a.549.549 0 0 1 1.096 0c0 .059.024 5.904 1.932 11.704 2.953 2.934 7.813 6.829 7.862 6.868a.549.549 0 0 1-.342.976zM25.141 29.79a.548.548 0 0 1-.521-.38 25.099 25.099 0 0 1-1.058-4.972.548.548 0 0 1 1.09-.117 23.956 23.956 0 0 0 1.011 4.754.547.547 0 0 1-.522.715zM27.937 35.587a.547.547 0 0 1-.438-.218c-.031-.042-.772-1.033-1.621-2.798a.547.547 0 1 1 .986-.475c.798 1.658 1.503 2.604 1.51 2.614a.548.548 0 0 1-.437.877zM52.171 32.048a.547.547 0 0 1-.283-1.018c.02-.014.182-.129.729-.58a.548.548 0 0 1 .696.847c-.453.373-.76.612-.862.673a.54.54 0 0 1-.28.078zM54.727 29.942a.547.547 0 0 1-.353-.966l.489-.409c.333-.277.65-.542 1.07-.906a.548.548 0 0 1 .718.826c-.427.371-.75.64-1.089.922l-.484.404a.535.535 0 0 1-.351.129zM57.97 27.124a.546.546 0 0 1-.367-.954 62.563 62.563 0 0 0 2.089-1.966c1.908-5.808 1.931-11.646 1.931-11.704a.548.548 0 1 1 1.096 0c0 .249-.023 6.158-2.028 12.173a.535.535 0 0 1-.132.214 61.656 61.656 0 0 1-2.221 2.095.55.55 0 0 1-.368.142zM72.032 35.587a.547.547 0 0 1-.437-.877c.03-.041 3.046-4.12 3.722-10.389a.549.549 0 0 1 1.09.117c-.711 6.585-3.806 10.756-3.937 10.931a.55.55 0 0 1-.438.218zM53 67h-5a.5.5 0 0 1-.447-.276l-2.5-5a.503.503 0 0 1 .35-.714l5-1a.492.492 0 0 1 .195 0l5 1a.499.499 0 0 1 .35.714l-2.5 5A.503.503 0 0 1 53 67zm-4.691-1h4.383l2.068-4.138-4.26-.852-4.26.852L48.309 66zM57 91.5H44a.5.5 0 0 1-.457-.704l3.957-8.903v-3.451a.5.5 0 0 1 1 0V82c0 .07-.015.139-.043.203L44.77 90.5h11.46l-.991-2.231a.5.5 0 0 1 .914-.406l1.304 2.934A.501.501 0 0 1 57 91.5z"/><path fill="#1f212b" d="M54.532 85.943a.5.5 0 0 1-.457-.297l-1.532-3.443A.507.507 0 0 1 52.5 82v-8c0-.133.053-.26.146-.354l.854-.854V70.5h-6v2.293l.854.854A.5.5 0 0 1 48.5 74v2.049a.5.5 0 0 1-1 0v-1.842l-.854-.854A.5.5 0 0 1 46.5 73v-3a.5.5 0 0 1 .5-.5h7a.5.5 0 0 1 .5.5v3c0 .133-.053.26-.146.354l-.854.853v7.687l1.489 3.346a.5.5 0 0 1-.457.703z"/><path fill="#1f212b" d="M54.5 86h-8a.5.5 0 0 1 0-1h8a.5.5 0 0 1 0 1z"/></svg>