<svg xmlns="http://www.w3.org/2000/svg"  viewBox="0 0 100 100" width="100px" height="100px"><path d="M52.04,100.042c-26.523,0-39.732-12.659-41.15-14.102 c-2.02-2.052-2.442-5.239-1.027-7.749c0.062-0.113,7.268-13.246,7.268-27.147c0-0.493,0.12-3.178,0.134-3.667 c-5.628-2.856-9.39-4.971-10.984-10.656c-0.424-1.511-0.288-3.094,0.359-4.487c-0.934-2.516-1.668-5.73-1.668-9.616 c0-1.43,0.464-2.753,1.249-3.828c-1.202-4.1-1.249-7.786-1.249-8.331c0-3.584,4.004-8.236,7.588-8.236 c6.721,0,16.774,4.954,18.71,15.632c8.864-9.892,18.105-13.89,20.716-13.895c2.619,0,13.356,4.75,22.235,14.636 C76.17,7.94,85.814,3.958,92.528,3.958c3.584,0,6.5,2.916,6.5,6.5c0,0.545-0.047,4.231-1.249,8.331 c0.785,1.075,1.249,2.398,1.249,3.828c0,3.577-0.622,6.583-1.449,9.001c0.935,1.537,1.191,3.378,0.703,5.125 c-1.58,5.634-5.406,9.947-11.394,12.859c0.015,0.479,0.021,0.958,0.021,1.441c0,13.978,7.172,27.049,7.245,27.179 c0.531,0.958,0.814,2.044,0.818,3.141h-0.001c0.001,0.116-0.002,0.234-0.007,0.334c-0.035,0.994-0.343,2.052-0.887,2.979 c-0.307,0.521-0.692,0.966-1.134,1.33c-3.284,3.539-10.491,7.223-10.571,7.263C76.23,96.359,65.982,100.042,52.04,100.042z" opacity=".35"/><path fill="#f2f2f2" d="M50.04,98.042c-26.523,0-39.732-12.659-41.15-14.102c-2.02-2.052-2.442-5.239-1.027-7.749 c0.062-0.113,7.268-13.246,7.268-27.147c0-0.493,0.008-0.983,0.022-1.472C9.524,44.715,5.874,40.405,4.28,34.721 c-0.424-1.511-0.288-3.094,0.359-4.487c-0.934-2.516-1.668-5.73-1.668-9.616c0-1.43,0.464-2.753,1.249-3.828 c-1.202-4.1-1.249-7.786-1.249-8.331c0-3.584,2.916-6.5,6.5-6.5c6.721,0,16.378,3.989,18.313,14.667 c8.864-9.892,19.59-14.662,22.2-14.667c2.619,0,13.356,4.75,22.235,14.636C74.17,5.94,83.814,1.958,90.528,1.958 c3.584,0,6.5,2.916,6.5,6.5c0,0.545-0.047,4.231-1.249,8.331c0.785,1.075,1.249,2.398,1.249,3.828c0,3.577-0.622,6.583-1.449,9.001 c0.935,1.537,1.191,3.378,0.703,5.125c-1.58,5.634-5.406,9.947-11.394,12.859c0.015,0.479,0.021,0.958,0.021,1.441 c0,13.978,7.172,27.049,7.245,27.179c0.531,0.958,0.814,2.044,0.818,3.141h-0.001c0.001,0.116-0.002,0.234-0.007,0.334 c-0.035,0.994-0.343,2.052-0.887,2.979c-0.307,0.521-0.692,0.966-1.134,1.33c-3.284,3.539-10.491,7.223-10.571,7.263 C74.23,94.359,63.982,98.042,50.04,98.042z"/><path fill="#9ba7c5" d="M50.441,89.999c-0.135-0.067-0.285-0.103-0.44-0.103c-0.062,0-0.122,0.005-0.184,0.017 c-0.092,0.017-0.179,0.046-0.259,0.086c-20.376-0.126-31.784-9-34.309-11.208C16.871,75.703,23,63.1,23,49.056 c0-26.81,24.928-38.163,27.002-39.016c2.074,0.847,27.038,12.139,27.038,39.016c0,13.917,6.115,26.644,7.714,29.733 C82.25,80.99,70.87,89.883,50.441,89.999z"/><path fill="#d9eeff" d="M86,33c0,0,4-4,4-12h-4c4-4,4-12,4-12S78,9,78,21c0,24-10,16-10,16v8c0,0,18.064-0.044,21.416-12 H86z"/><path fill="#d9eeff" d="M14,33c0,0-4-4-4-12h4c-4-4-4-12-4-12s12,0,12,12c0,24,10,16,10,16v8c0,0-18.064-0.044-21.416-12 H14z"/><path fill="#ef8630" d="M22.719,49.056c0,14.044-7.291,27.763-8.912,30.85C16.331,82.115,31,90.713,50.287,90.713 c19.713,0,33.403-9.129,35.906-11.33c-1.599-3.089-9.435-16.409-9.435-30.327c0-1.752-0.111-3.435-0.31-5.056H23.03 C22.831,45.622,22.719,47.304,22.719,49.056z"/><path fill="#f9b84f" d="M20.61,85.111l-2.501-1.657C18.198,83.319,27,69.807,27,52.5h3 C30,70.743,20.994,84.533,20.61,85.111z"/><path fill="#f9b84f" d="M28.61,89.111l-2.501-1.657C26.198,87.319,35,73.807,35,56.5h3 C38,74.743,28.994,88.533,28.61,89.111z"/><path fill="#f9b84f" d="M79.25,85.111c-0.384-0.578-9.39-14.368-9.39-32.611h3c0,17.347,8.801,30.819,8.89,30.953 L79.25,85.111z"/><path fill="#f9b84f" d="M71.25,89.111c-0.384-0.578-9.39-14.368-9.39-32.611h3c0,17.347,8.801,30.819,8.89,30.953 L71.25,89.111z"/><path fill="#fff" d="M34.18,49c-0.608,0.816,0,8,7.048,8c1.992,0,3.744-0.912,4.772-2.292L34.18,49z"/><path fill="#fff" d="M65.82,49c0.608,0.816,0,8-7.048,8c-1.992,0-3.744-0.912-4.772-2.292L65.82,49z"/><path fill="#ffd7bd" d="M27,45h46c0,0-1,4-1,15c0,0.885,0.351,3.156,0,4c-2.95,7.096-10.893,16.361-20.156,20.603 c-1.152,0.527-2.532,0.532-3.684,0C38.425,80.146,26.338,69.942,27,62C28,50,27,45,27,45z"/><path fill="#ef8630" d="M30,44c0,0-0.171,9-1.944,21.129l-3.126-6.477V43.584L30,44z"/><path fill="#ef8630" d="M69.93,44c0,0-1.112,9.257,1.944,21.129L75,58.652V43.584L69.93,44z"/><circle cx="50" cy="44.5" r="6.5" fill="#707cc0"/><path fill="none" stroke="#40396e" stroke-linecap="round" stroke-linejoin="round" stroke-miterlimit="10" stroke-width="3" d="M86.475,20.617c4.053-4.053,4.053-12.158,4.053-12.158s-12.158,0-12.158,12.158c0,7.613-0.993,12.047-2.358,14.548 C69.327,16.668,50.878,8.457,50,8.459c-0.869,0.002-19.322,8.222-25.987,26.747c-1.377-2.493-2.382-6.931-2.382-14.588 C21.63,8.459,9.472,8.459,9.472,8.459s0,8.106,4.053,12.158H9.472c0,8.106,4.053,12.158,4.053,12.158l-2.985,0.191 c1.68,5.992,6.53,8.838,11.485,10.379c-0.249,1.825-0.394,3.718-0.394,5.698c0,15.968-8.106,30.339-8.106,30.339 S25.479,91.541,50,91.541h0.041c24.521,0,36.435-12.158,36.434-12.158c0.001,0-8.064-14.375-8.064-30.339 c0-1.985-0.147-3.882-0.397-5.711c4.944-1.545,10.333-4.365,12.009-10.341l-3.547-0.216c0,0,4.053-4.053,4.053-12.158H86.475z"/><path fill="#ffd7bd" d="M27,64l3.201,12.34c0,0.952,0.371,1.846,1.044,2.52l9.096,10.096C41.014,89.629,46,90,49.987,90 c4.013,0,8.999-0.371,9.672-1.044l9.096-10.096c0.673-0.673,1.044-1.568,1.044-2.52L73,64H27z"/><path fill="#f9b84f" d="M22.871,81.109l-2.674-1.36C22.738,74.756,27,64.577,27,52.5v-7.197h3V52.5 C30,65.203,25.533,75.877,22.871,81.109z"/><path fill="#f9b84f" d="M76.988,81.109C74.326,75.878,69.86,65.205,69.86,52.5v-7.197h3V52.5 c0,12.079,4.262,22.257,6.802,27.249L76.988,81.109z"/><path fill="#707cc0" d="M23.123,46h53.794c-0.419-5.754-1.995-10.734-4.196-15H27.328 C25.123,35.268,23.543,40.248,23.123,46z"/><polygon fill="#40396e" points="52,80 48,80 45,78 55,78" opacity=".35"/><polygon fill="#40396e" points="46.607,72 53.607,72 59,75 41,75" opacity=".35"/><path fill="#f2f2f2" d="M42.728,56.711c0,0-3.271,0-5.698,0c-2.427,0-3.256-2.198-3.256-2.198s0.814-2.198,4.07-2.198 C40.272,52.315,42.728,56.711,42.728,56.711z"/><circle cx="38.17" cy="54.513" r="2.198" fill="#2b59a1"/><path fill="#40396e" d="M43.624,55.408c1.194,0,1.795-1.455,0.937-2.285c-0.511-0.494-1.126-0.966-1.833-1.297 c-3.026-1.513-4.879-2.47-6.391-2.47c-3.026,0-4.353,2.47-4.353,2.47s0.012-0.004,0.033-0.01c2.059-0.589,4.27-0.283,6.099,0.831 C40.125,53.873,42.737,55.408,43.624,55.408L43.624,55.408z"/><path fill="#f2f2f2" d="M62.334,52.414c3.107,0,3.884,2.097,3.884,2.097s-0.791,2.097-3.107,2.097 c-2.316,0-5.437,0-5.437,0S60.017,52.414,62.334,52.414z"/><circle cx="62.023" cy="54.511" r="2.097" fill="#2b59a1"/><path fill="#40396e" d="M56.376,55.408c0.886,0,3.498-1.536,5.508-2.761c1.828-1.114,4.039-1.42,6.099-0.831 c0.021,0.006,0.033,0.01,0.033,0.01s-1.327-2.47-4.353-2.47c-1.512,0-3.366,0.957-6.391,2.47c-0.707,0.33-1.322,0.802-1.833,1.297 C54.581,53.953,55.183,55.408,56.376,55.408L56.376,55.408z"/></svg>